<mxfile host="app.diagrams.net" modified="2022-06-06T09:45:59.076Z" agent="5.0 (Macintosh; Intel Mac OS X 10_15_7) AppleWebKit/537.36 (KHTML, like Gecko) Chrome/102.0.0.0 Safari/537.36" etag="zjNpcZWiUyL6KYbJCyNb" version="19.0.0" type="github">
  <diagram id="e7zzN5IPQSMmDOYIE2wS" name="Page-1">
    <mxGraphModel dx="2645" dy="1161" grid="1" gridSize="10" guides="1" tooltips="1" connect="1" arrows="1" fold="1" page="1" pageScale="1" pageWidth="850" pageHeight="1100" math="0" shadow="0">
      <root>
        <mxCell id="0" />
        <mxCell id="1" parent="0" />
        <mxCell id="L4XkyH18cuY4Jyip78m7-1" value="Content Table" style="shape=table;startSize=30;container=1;collapsible=1;childLayout=tableLayout;fixedRows=1;rowLines=0;fontStyle=1;align=center;resizeLast=1;fontSize=13;" vertex="1" parent="1">
          <mxGeometry x="-790" y="420" width="159" height="150" as="geometry" />
        </mxCell>
        <mxCell id="L4XkyH18cuY4Jyip78m7-2" value="" style="shape=tableRow;horizontal=0;startSize=0;swimlaneHead=0;swimlaneBody=0;fillColor=none;collapsible=0;dropTarget=0;points=[[0,0.5],[1,0.5]];portConstraint=eastwest;top=0;left=0;right=0;bottom=1;fontSize=13;fontStyle=1" vertex="1" parent="L4XkyH18cuY4Jyip78m7-1">
          <mxGeometry y="30" width="159" height="35" as="geometry" />
        </mxCell>
        <mxCell id="L4XkyH18cuY4Jyip78m7-3" value="PK" style="shape=partialRectangle;connectable=0;fillColor=none;top=0;left=0;bottom=0;right=0;fontStyle=1;overflow=hidden;fontSize=13;" vertex="1" parent="L4XkyH18cuY4Jyip78m7-2">
          <mxGeometry width="30" height="35" as="geometry">
            <mxRectangle width="30" height="35" as="alternateBounds" />
          </mxGeometry>
        </mxCell>
        <mxCell id="L4XkyH18cuY4Jyip78m7-4" value="DuplicateGroupID" style="shape=partialRectangle;connectable=0;fillColor=none;top=0;left=0;bottom=0;right=0;align=left;spacingLeft=6;fontStyle=5;overflow=hidden;fontSize=13;" vertex="1" parent="L4XkyH18cuY4Jyip78m7-2">
          <mxGeometry x="30" width="129" height="35" as="geometry">
            <mxRectangle width="129" height="35" as="alternateBounds" />
          </mxGeometry>
        </mxCell>
        <mxCell id="L4XkyH18cuY4Jyip78m7-5" value="" style="shape=tableRow;horizontal=0;startSize=0;swimlaneHead=0;swimlaneBody=0;fillColor=none;collapsible=0;dropTarget=0;points=[[0,0.5],[1,0.5]];portConstraint=eastwest;top=0;left=0;right=0;bottom=0;fontSize=13;fontStyle=1" vertex="1" parent="L4XkyH18cuY4Jyip78m7-1">
          <mxGeometry y="65" width="159" height="25" as="geometry" />
        </mxCell>
        <mxCell id="L4XkyH18cuY4Jyip78m7-6" value="" style="shape=partialRectangle;connectable=0;fillColor=none;top=0;left=0;bottom=0;right=0;editable=1;overflow=hidden;fontSize=13;fontStyle=1" vertex="1" parent="L4XkyH18cuY4Jyip78m7-5">
          <mxGeometry width="30" height="25" as="geometry">
            <mxRectangle width="30" height="25" as="alternateBounds" />
          </mxGeometry>
        </mxCell>
        <mxCell id="L4XkyH18cuY4Jyip78m7-7" value="ContentÂ " style="shape=partialRectangle;connectable=0;fillColor=none;top=0;left=0;bottom=0;right=0;align=left;spacingLeft=6;overflow=hidden;fontSize=13;fontStyle=1" vertex="1" parent="L4XkyH18cuY4Jyip78m7-5">
          <mxGeometry x="30" width="129" height="25" as="geometry">
            <mxRectangle width="129" height="25" as="alternateBounds" />
          </mxGeometry>
        </mxCell>
        <mxCell id="L4XkyH18cuY4Jyip78m7-8" value="" style="shape=tableRow;horizontal=0;startSize=0;swimlaneHead=0;swimlaneBody=0;fillColor=none;collapsible=0;dropTarget=0;points=[[0,0.5],[1,0.5]];portConstraint=eastwest;top=0;left=0;right=0;bottom=0;fontSize=13;fontStyle=1" vertex="1" parent="L4XkyH18cuY4Jyip78m7-1">
          <mxGeometry y="90" width="159" height="30" as="geometry" />
        </mxCell>
        <mxCell id="L4XkyH18cuY4Jyip78m7-9" value="" style="shape=partialRectangle;connectable=0;fillColor=none;top=0;left=0;bottom=0;right=0;editable=1;overflow=hidden;fontSize=13;fontStyle=1" vertex="1" parent="L4XkyH18cuY4Jyip78m7-8">
          <mxGeometry width="30" height="30" as="geometry">
            <mxRectangle width="30" height="30" as="alternateBounds" />
          </mxGeometry>
        </mxCell>
        <mxCell id="L4XkyH18cuY4Jyip78m7-10" value="Article ID List" style="shape=partialRectangle;connectable=0;fillColor=none;top=0;left=0;bottom=0;right=0;align=left;spacingLeft=6;overflow=hidden;fontSize=13;fontStyle=1" vertex="1" parent="L4XkyH18cuY4Jyip78m7-8">
          <mxGeometry x="30" width="129" height="30" as="geometry">
            <mxRectangle width="129" height="30" as="alternateBounds" />
          </mxGeometry>
        </mxCell>
        <mxCell id="L4XkyH18cuY4Jyip78m7-11" value="" style="shape=tableRow;horizontal=0;startSize=0;swimlaneHead=0;swimlaneBody=0;fillColor=none;collapsible=0;dropTarget=0;points=[[0,0.5],[1,0.5]];portConstraint=eastwest;top=0;left=0;right=0;bottom=0;fontSize=13;fontStyle=1" vertex="1" parent="L4XkyH18cuY4Jyip78m7-1">
          <mxGeometry y="120" width="159" height="30" as="geometry" />
        </mxCell>
        <mxCell id="L4XkyH18cuY4Jyip78m7-12" value="" style="shape=partialRectangle;connectable=0;fillColor=none;top=0;left=0;bottom=0;right=0;editable=1;overflow=hidden;fontSize=13;fontStyle=1" vertex="1" parent="L4XkyH18cuY4Jyip78m7-11">
          <mxGeometry width="30" height="30" as="geometry">
            <mxRectangle width="30" height="30" as="alternateBounds" />
          </mxGeometry>
        </mxCell>
        <mxCell id="L4XkyH18cuY4Jyip78m7-13" value="other columns" style="shape=partialRectangle;connectable=0;fillColor=none;top=0;left=0;bottom=0;right=0;align=left;spacingLeft=6;overflow=hidden;fontSize=13;fontStyle=1" vertex="1" parent="L4XkyH18cuY4Jyip78m7-11">
          <mxGeometry x="30" width="129" height="30" as="geometry">
            <mxRectangle width="129" height="30" as="alternateBounds" />
          </mxGeometry>
        </mxCell>
        <mxCell id="L4XkyH18cuY4Jyip78m7-14" style="edgeStyle=orthogonalEdgeStyle;rounded=0;orthogonalLoop=1;jettySize=auto;html=1;exitX=1;exitY=0.5;exitDx=0;exitDy=0;fontSize=13;fontStyle=1" edge="1" parent="L4XkyH18cuY4Jyip78m7-1" source="L4XkyH18cuY4Jyip78m7-2" target="L4XkyH18cuY4Jyip78m7-2">
          <mxGeometry relative="1" as="geometry" />
        </mxCell>
        <mxCell id="L4XkyH18cuY4Jyip78m7-23" style="edgeStyle=orthogonalEdgeStyle;rounded=0;orthogonalLoop=1;jettySize=auto;html=1;exitX=1;exitY=0.5;exitDx=0;exitDy=0;fontStyle=1;fontSize=13;" edge="1" parent="1" source="L4XkyH18cuY4Jyip78m7-15" target="L4XkyH18cuY4Jyip78m7-20">
          <mxGeometry relative="1" as="geometry" />
        </mxCell>
        <mxCell id="L4XkyH18cuY4Jyip78m7-32" style="edgeStyle=orthogonalEdgeStyle;rounded=0;orthogonalLoop=1;jettySize=auto;html=1;exitX=1;exitY=0.5;exitDx=0;exitDy=0;entryX=0;entryY=0.5;entryDx=0;entryDy=0;endArrow=classic;endFill=1;fontStyle=1;fontSize=13;" edge="1" parent="1" source="L4XkyH18cuY4Jyip78m7-15" target="L4XkyH18cuY4Jyip78m7-19">
          <mxGeometry relative="1" as="geometry" />
        </mxCell>
        <mxCell id="L4XkyH18cuY4Jyip78m7-33" style="edgeStyle=orthogonalEdgeStyle;rounded=0;orthogonalLoop=1;jettySize=auto;html=1;exitX=1;exitY=0.5;exitDx=0;exitDy=0;entryX=0;entryY=0.5;entryDx=0;entryDy=0;endArrow=classic;endFill=1;fontStyle=1;fontSize=13;" edge="1" parent="1" source="L4XkyH18cuY4Jyip78m7-15" target="L4XkyH18cuY4Jyip78m7-21">
          <mxGeometry relative="1" as="geometry" />
        </mxCell>
        <mxCell id="L4XkyH18cuY4Jyip78m7-15" value="Chunking Algorithm" style="shape=process;whiteSpace=wrap;html=1;backgroundOutline=1;fontStyle=1;fontSize=13;" vertex="1" parent="1">
          <mxGeometry x="-580" y="467" width="120" height="60" as="geometry" />
        </mxCell>
        <mxCell id="L4XkyH18cuY4Jyip78m7-18" style="edgeStyle=orthogonalEdgeStyle;rounded=0;orthogonalLoop=1;jettySize=auto;html=1;exitX=1;exitY=0.5;exitDx=0;exitDy=0;fontStyle=1;fontSize=13;" edge="1" parent="1" source="L4XkyH18cuY4Jyip78m7-5" target="L4XkyH18cuY4Jyip78m7-15">
          <mxGeometry relative="1" as="geometry" />
        </mxCell>
        <mxCell id="L4XkyH18cuY4Jyip78m7-26" style="edgeStyle=orthogonalEdgeStyle;rounded=0;orthogonalLoop=1;jettySize=auto;html=1;exitX=1;exitY=0.5;exitDx=0;exitDy=0;entryX=0;entryY=0.5;entryDx=0;entryDy=0;endArrow=classic;endFill=1;fontStyle=1;fontSize=13;" edge="1" parent="1" source="L4XkyH18cuY4Jyip78m7-19" target="L4XkyH18cuY4Jyip78m7-25">
          <mxGeometry relative="1" as="geometry" />
        </mxCell>
        <mxCell id="L4XkyH18cuY4Jyip78m7-19" value="P1" style="rounded=1;whiteSpace=wrap;html=1;fontStyle=1;fontSize=13;" vertex="1" parent="1">
          <mxGeometry x="-410" y="410" width="120" height="40" as="geometry" />
        </mxCell>
        <mxCell id="L4XkyH18cuY4Jyip78m7-24" style="edgeStyle=orthogonalEdgeStyle;rounded=0;orthogonalLoop=1;jettySize=auto;html=1;exitX=0.5;exitY=1;exitDx=0;exitDy=0;entryX=0.5;entryY=0;entryDx=0;entryDy=0;dashed=1;endArrow=none;endFill=0;fontStyle=1;fontSize=13;" edge="1" parent="1" source="L4XkyH18cuY4Jyip78m7-20" target="L4XkyH18cuY4Jyip78m7-21">
          <mxGeometry relative="1" as="geometry" />
        </mxCell>
        <mxCell id="L4XkyH18cuY4Jyip78m7-27" style="edgeStyle=orthogonalEdgeStyle;rounded=0;orthogonalLoop=1;jettySize=auto;html=1;exitX=1;exitY=0.5;exitDx=0;exitDy=0;entryX=0;entryY=0.5;entryDx=0;entryDy=0;endArrow=classic;endFill=1;fontStyle=1;fontSize=13;" edge="1" parent="1" source="L4XkyH18cuY4Jyip78m7-20" target="L4XkyH18cuY4Jyip78m7-25">
          <mxGeometry relative="1" as="geometry" />
        </mxCell>
        <mxCell id="L4XkyH18cuY4Jyip78m7-20" value="P2" style="rounded=1;whiteSpace=wrap;html=1;fontStyle=1;fontSize=13;" vertex="1" parent="1">
          <mxGeometry x="-410" y="477" width="120" height="40" as="geometry" />
        </mxCell>
        <mxCell id="L4XkyH18cuY4Jyip78m7-28" style="edgeStyle=orthogonalEdgeStyle;rounded=0;orthogonalLoop=1;jettySize=auto;html=1;exitX=1;exitY=0.5;exitDx=0;exitDy=0;entryX=0;entryY=0.5;entryDx=0;entryDy=0;endArrow=classic;endFill=1;fontStyle=1;fontSize=13;" edge="1" parent="1" source="L4XkyH18cuY4Jyip78m7-21" target="L4XkyH18cuY4Jyip78m7-25">
          <mxGeometry relative="1" as="geometry" />
        </mxCell>
        <mxCell id="L4XkyH18cuY4Jyip78m7-21" value="Pn" style="rounded=1;whiteSpace=wrap;html=1;fontStyle=1;fontSize=13;" vertex="1" parent="1">
          <mxGeometry x="-410" y="560" width="120" height="40" as="geometry" />
        </mxCell>
        <mxCell id="L4XkyH18cuY4Jyip78m7-22" value="&lt;font style=&quot;font-size: 13px;&quot;&gt;Break into Paragraphs&lt;/font&gt;" style="edgeLabel;html=1;align=center;verticalAlign=middle;resizable=0;points=[];fontStyle=1;fontSize=13;" vertex="1" connectable="0" parent="1">
          <mxGeometry x="-350" y="370" as="geometry">
            <mxPoint x="-2" y="27" as="offset" />
          </mxGeometry>
        </mxCell>
        <mxCell id="L4XkyH18cuY4Jyip78m7-31" style="edgeStyle=orthogonalEdgeStyle;rounded=0;orthogonalLoop=1;jettySize=auto;html=1;exitX=1;exitY=0.5;exitDx=0;exitDy=0;entryX=0;entryY=0.5;entryDx=0;entryDy=0;endArrow=classic;endFill=1;fontStyle=1;fontSize=13;" edge="1" parent="1" source="L4XkyH18cuY4Jyip78m7-25" target="L4XkyH18cuY4Jyip78m7-30">
          <mxGeometry relative="1" as="geometry" />
        </mxCell>
        <mxCell id="L4XkyH18cuY4Jyip78m7-25" value="Topic Extraction Algorithm" style="shape=process;whiteSpace=wrap;html=1;backgroundOutline=1;fontStyle=1;fontSize=13;" vertex="1" parent="1">
          <mxGeometry x="-250" y="467" width="120" height="60" as="geometry" />
        </mxCell>
        <mxCell id="L4XkyH18cuY4Jyip78m7-36" style="edgeStyle=orthogonalEdgeStyle;rounded=0;orthogonalLoop=1;jettySize=auto;html=1;exitX=0.5;exitY=0;exitDx=0;exitDy=0;entryX=0.5;entryY=1;entryDx=0;entryDy=0;endArrow=classic;endFill=1;fontStyle=1;fontSize=13;" edge="1" parent="1" source="L4XkyH18cuY4Jyip78m7-30" target="L4XkyH18cuY4Jyip78m7-35">
          <mxGeometry relative="1" as="geometry" />
        </mxCell>
        <mxCell id="L4XkyH18cuY4Jyip78m7-37" value="No" style="edgeLabel;html=1;align=center;verticalAlign=middle;resizable=0;points=[];fontStyle=1;fontSize=13;" vertex="1" connectable="0" parent="L4XkyH18cuY4Jyip78m7-36">
          <mxGeometry x="-0.2727" y="-1" relative="1" as="geometry">
            <mxPoint as="offset" />
          </mxGeometry>
        </mxCell>
        <mxCell id="L4XkyH18cuY4Jyip78m7-39" style="edgeStyle=orthogonalEdgeStyle;rounded=0;orthogonalLoop=1;jettySize=auto;html=1;exitX=1;exitY=0.5;exitDx=0;exitDy=0;entryX=0;entryY=0.5;entryDx=0;entryDy=0;endArrow=classic;endFill=1;fontStyle=1;fontSize=13;" edge="1" parent="1" source="L4XkyH18cuY4Jyip78m7-30" target="L4XkyH18cuY4Jyip78m7-38">
          <mxGeometry relative="1" as="geometry" />
        </mxCell>
        <mxCell id="L4XkyH18cuY4Jyip78m7-56" value="Yes" style="edgeLabel;html=1;align=center;verticalAlign=middle;resizable=0;points=[];fontStyle=1;fontSize=13;" vertex="1" connectable="0" parent="L4XkyH18cuY4Jyip78m7-39">
          <mxGeometry x="-0.3333" y="-1" relative="1" as="geometry">
            <mxPoint as="offset" />
          </mxGeometry>
        </mxCell>
        <mxCell id="L4XkyH18cuY4Jyip78m7-30" value="&lt;br style=&quot;font-size: 13px;&quot;&gt;&lt;br style=&quot;font-size: 13px;&quot;&gt;Does Paragraph&lt;br style=&quot;font-size: 13px;&quot;&gt;contains&lt;br style=&quot;font-size: 13px;&quot;&gt;Topic&lt;br style=&quot;font-size: 13px;&quot;&gt;?" style="rhombus;whiteSpace=wrap;html=1;fontStyle=1;fontSize=13;" vertex="1" parent="1">
          <mxGeometry x="-90" y="446" width="130" height="102" as="geometry" />
        </mxCell>
        <mxCell id="L4XkyH18cuY4Jyip78m7-35" value="Discard Paragraph" style="rounded=1;whiteSpace=wrap;html=1;fontStyle=1;fontSize=13;" vertex="1" parent="1">
          <mxGeometry x="-85" y="340" width="120" height="40" as="geometry" />
        </mxCell>
        <mxCell id="L4XkyH18cuY4Jyip78m7-129" style="edgeStyle=orthogonalEdgeStyle;rounded=0;orthogonalLoop=1;jettySize=auto;html=1;exitX=1;exitY=0.5;exitDx=0;exitDy=0;entryX=0;entryY=0.5;entryDx=0;entryDy=0;endArrow=classic;endFill=1;fontStyle=1;fontSize=13;" edge="1" parent="1" source="L4XkyH18cuY4Jyip78m7-38" target="L4XkyH18cuY4Jyip78m7-99">
          <mxGeometry relative="1" as="geometry" />
        </mxCell>
        <mxCell id="L4XkyH18cuY4Jyip78m7-38" value="Sentiment &amp;amp; Keyword Extraction&lt;br style=&quot;font-size: 13px;&quot;&gt;Algorithm" style="shape=process;whiteSpace=wrap;html=1;backgroundOutline=1;fontStyle=1;fontSize=13;" vertex="1" parent="1">
          <mxGeometry x="100" y="467" width="120" height="60" as="geometry" />
        </mxCell>
        <mxCell id="L4XkyH18cuY4Jyip78m7-128" style="edgeStyle=orthogonalEdgeStyle;rounded=0;orthogonalLoop=1;jettySize=auto;html=1;exitX=1;exitY=0.5;exitDx=0;exitDy=0;entryX=0;entryY=0.5;entryDx=0;entryDy=0;endArrow=classic;endFill=1;fontStyle=1;fontSize=13;" edge="1" parent="1" source="L4XkyH18cuY4Jyip78m7-99" target="L4XkyH18cuY4Jyip78m7-127">
          <mxGeometry relative="1" as="geometry" />
        </mxCell>
        <mxCell id="L4XkyH18cuY4Jyip78m7-99" value="Keyword Aggregation Algorithm" style="shape=process;whiteSpace=wrap;html=1;backgroundOutline=1;fontStyle=1;fontSize=13;" vertex="1" parent="1">
          <mxGeometry x="260" y="467" width="120" height="60" as="geometry" />
        </mxCell>
        <mxCell id="L4XkyH18cuY4Jyip78m7-113" value="Keyword Table" style="shape=table;startSize=30;container=1;collapsible=1;childLayout=tableLayout;fixedRows=1;rowLines=0;fontStyle=1;align=center;resizeLast=1;fontSize=13;" vertex="1" parent="1">
          <mxGeometry x="590" y="410" width="200" height="150" as="geometry">
            <mxRectangle x="220" y="600" width="120" height="30" as="alternateBounds" />
          </mxGeometry>
        </mxCell>
        <mxCell id="L4XkyH18cuY4Jyip78m7-114" value="" style="shape=tableRow;horizontal=0;startSize=0;swimlaneHead=0;swimlaneBody=0;fillColor=none;collapsible=0;dropTarget=0;points=[[0,0.5],[1,0.5]];portConstraint=eastwest;top=0;left=0;right=0;bottom=0;fontStyle=1;fontSize=13;" vertex="1" parent="L4XkyH18cuY4Jyip78m7-113">
          <mxGeometry y="30" width="200" height="30" as="geometry" />
        </mxCell>
        <mxCell id="L4XkyH18cuY4Jyip78m7-115" value="PK,FK1" style="shape=partialRectangle;connectable=0;fillColor=none;top=0;left=0;bottom=0;right=0;fontStyle=1;overflow=hidden;fontSize=13;" vertex="1" parent="L4XkyH18cuY4Jyip78m7-114">
          <mxGeometry width="60" height="30" as="geometry">
            <mxRectangle width="60" height="30" as="alternateBounds" />
          </mxGeometry>
        </mxCell>
        <mxCell id="L4XkyH18cuY4Jyip78m7-116" value="topic_key_id" style="shape=partialRectangle;connectable=0;fillColor=none;top=0;left=0;bottom=0;right=0;align=left;spacingLeft=6;fontStyle=5;overflow=hidden;fontSize=13;" vertex="1" parent="L4XkyH18cuY4Jyip78m7-114">
          <mxGeometry x="60" width="140" height="30" as="geometry">
            <mxRectangle width="140" height="30" as="alternateBounds" />
          </mxGeometry>
        </mxCell>
        <mxCell id="L4XkyH18cuY4Jyip78m7-117" value="" style="shape=tableRow;horizontal=0;startSize=0;swimlaneHead=0;swimlaneBody=0;fillColor=none;collapsible=0;dropTarget=0;points=[[0,0.5],[1,0.5]];portConstraint=eastwest;top=0;left=0;right=0;bottom=1;fontStyle=1;fontSize=13;" vertex="1" parent="L4XkyH18cuY4Jyip78m7-113">
          <mxGeometry y="60" width="200" height="30" as="geometry" />
        </mxCell>
        <mxCell id="L4XkyH18cuY4Jyip78m7-118" value="PK,FK2" style="shape=partialRectangle;connectable=0;fillColor=none;top=0;left=0;bottom=0;right=0;fontStyle=1;overflow=hidden;fontSize=13;" vertex="1" parent="L4XkyH18cuY4Jyip78m7-117">
          <mxGeometry width="60" height="30" as="geometry">
            <mxRectangle width="60" height="30" as="alternateBounds" />
          </mxGeometry>
        </mxCell>
        <mxCell id="L4XkyH18cuY4Jyip78m7-119" value="topic_brand_key_id" style="shape=partialRectangle;connectable=0;fillColor=none;top=0;left=0;bottom=0;right=0;align=left;spacingLeft=6;fontStyle=5;overflow=hidden;fontSize=13;" vertex="1" parent="L4XkyH18cuY4Jyip78m7-117">
          <mxGeometry x="60" width="140" height="30" as="geometry">
            <mxRectangle width="140" height="30" as="alternateBounds" />
          </mxGeometry>
        </mxCell>
        <mxCell id="L4XkyH18cuY4Jyip78m7-120" value="" style="shape=tableRow;horizontal=0;startSize=0;swimlaneHead=0;swimlaneBody=0;fillColor=none;collapsible=0;dropTarget=0;points=[[0,0.5],[1,0.5]];portConstraint=eastwest;top=0;left=0;right=0;bottom=0;fontStyle=1;fontSize=13;" vertex="1" parent="L4XkyH18cuY4Jyip78m7-113">
          <mxGeometry y="90" width="200" height="30" as="geometry" />
        </mxCell>
        <mxCell id="L4XkyH18cuY4Jyip78m7-121" value="" style="shape=partialRectangle;connectable=0;fillColor=none;top=0;left=0;bottom=0;right=0;editable=1;overflow=hidden;fontStyle=1;fontSize=13;" vertex="1" parent="L4XkyH18cuY4Jyip78m7-120">
          <mxGeometry width="60" height="30" as="geometry">
            <mxRectangle width="60" height="30" as="alternateBounds" />
          </mxGeometry>
        </mxCell>
        <mxCell id="L4XkyH18cuY4Jyip78m7-122" value="article_id" style="shape=partialRectangle;connectable=0;fillColor=none;top=0;left=0;bottom=0;right=0;align=left;spacingLeft=6;overflow=hidden;fontStyle=1;fontSize=13;" vertex="1" parent="L4XkyH18cuY4Jyip78m7-120">
          <mxGeometry x="60" width="140" height="30" as="geometry">
            <mxRectangle width="140" height="30" as="alternateBounds" />
          </mxGeometry>
        </mxCell>
        <mxCell id="L4XkyH18cuY4Jyip78m7-123" value="" style="shape=tableRow;horizontal=0;startSize=0;swimlaneHead=0;swimlaneBody=0;fillColor=none;collapsible=0;dropTarget=0;points=[[0,0.5],[1,0.5]];portConstraint=eastwest;top=0;left=0;right=0;bottom=0;fontStyle=1;fontSize=13;" vertex="1" parent="L4XkyH18cuY4Jyip78m7-113">
          <mxGeometry y="120" width="200" height="30" as="geometry" />
        </mxCell>
        <mxCell id="L4XkyH18cuY4Jyip78m7-124" value="" style="shape=partialRectangle;connectable=0;fillColor=none;top=0;left=0;bottom=0;right=0;editable=1;overflow=hidden;fontStyle=1;fontSize=13;" vertex="1" parent="L4XkyH18cuY4Jyip78m7-123">
          <mxGeometry width="60" height="30" as="geometry">
            <mxRectangle width="60" height="30" as="alternateBounds" />
          </mxGeometry>
        </mxCell>
        <mxCell id="L4XkyH18cuY4Jyip78m7-125" value="Row 4" style="shape=partialRectangle;connectable=0;fillColor=none;top=0;left=0;bottom=0;right=0;align=left;spacingLeft=6;overflow=hidden;fontStyle=1;fontSize=13;" vertex="1" parent="L4XkyH18cuY4Jyip78m7-123">
          <mxGeometry x="60" width="140" height="30" as="geometry">
            <mxRectangle width="140" height="30" as="alternateBounds" />
          </mxGeometry>
        </mxCell>
        <mxCell id="L4XkyH18cuY4Jyip78m7-159" style="edgeStyle=orthogonalEdgeStyle;rounded=0;orthogonalLoop=1;jettySize=auto;html=1;exitX=1;exitY=0.5;exitDx=0;exitDy=0;entryX=0;entryY=0.9;entryDx=0;entryDy=0;entryPerimeter=0;fontSize=28;endArrow=classic;endFill=1;" edge="1" parent="1" source="L4XkyH18cuY4Jyip78m7-127" target="L4XkyH18cuY4Jyip78m7-117">
          <mxGeometry relative="1" as="geometry" />
        </mxCell>
        <mxCell id="L4XkyH18cuY4Jyip78m7-127" value="Keyword Count Penalisation Algorithms" style="shape=process;whiteSpace=wrap;html=1;backgroundOutline=1;fontStyle=1;fontSize=13;" vertex="1" parent="1">
          <mxGeometry x="420" y="467" width="120" height="60" as="geometry" />
        </mxCell>
      </root>
    </mxGraphModel>
  </diagram>
</mxfile>
